# xmcd
#
# Track frame offsets: 
#        182
#        13430
#        28125
#        42827
#        54737
#        68325
#        82817
#        95287
#        106927
#        120977
#        136425
#        149462
#        164140
#        178295
#        191222
#        205265
#        218062
#        229510
#        243585
#        257622
#        270217
#        283900
#        298577
#
# Disc length: 4154 seconds
#
# Revision: 4
# Processed by: cddbd v1.5.2PL0 Copyright (c) Steve Scherf et al.
# Submitted via: ExactAudioCopy v0.95b2
#
DISCID=58103817
DTITLE=Various Artist - Before The Blues Volume 3
DYEAR=1996
DGENRE=Blues
TTITLE0=Memphis Minnie - Frisco Town
TTITLE1=Mississippi John Hurt - Spike Driver's Blues
TTITLE2=Cannon's Jug Stompers - Feather Bed
TTITLE3=Henry Thomas - Fox and the Hounds
TTITLE4=Buster Carter and Preston Young - A Lazy Farmer Boy
TTITLE5=Luke Jordan - Pick Poor Robin Clean
TTITLE6=Bobby Grant - Nappy Head Blues
TTITLE7=Taylor's Kentucky Boys - Sourwood Mountain
TTITLE8=Texas Alexander - Levee Camp Moan Blues
TTITLE9=Evans and McClain - John Henry Blues
TTITLE10=Biddleville Quintette - Coming to Christ
TTITLE11=Clarence Ashley - House Carpenter
TTITLE12=Lil McClintock - Furniture Man
TTITLE13=Cow Cow Davenport - Alabama Strut
TTITLE14=Furry Lewis - Kassie Jones (Part 1)
TTITLE15=Blind Boy Fuller - Thousend Woman Blues
TTITLE16=Blind Blake - Champaign Charlie Is My Name
TTITLE17=Moses Mason - Molly Man
TTITLE18=Frank Stokes - Chicken You Can Roost Behind The Moon
TTITLE19=John Hammond - Little Birdie
TTITLE20=Barbecue Bob - Black Skunk Blues
TTITLE21=Coley Jones - Drunkard's Special
TTITLE22=Blue Boys - Easy Winner
EXTD=
EXTT0=
EXTT1=
EXTT2=
EXTT3=
EXTT4=
EXTT5=
EXTT6=
EXTT7=
EXTT8=
EXTT9=
EXTT10=
EXTT11=
EXTT12=
EXTT13=
EXTT14=
EXTT15=
EXTT16=
EXTT17=
EXTT18=
EXTT19=
EXTT20=
EXTT21=
EXTT22=
PLAYORDER=
